<?xml version="1.0" encoding="utf-8"?><svg xml:space="preserve" viewBox="0 0 100 100" y="0" x="0" xmlns="http://www.w3.org/2000/svg" id="圖層_1" version="1.1" width="200px" height="200px" xmlns:xlink="http://www.w3.org/1999/xlink" style="width:100%;height:100%;background-size:initial;background-repeat-y:initial;background-repeat-x:initial;background-position-y:initial;background-position-x:initial;background-origin:initial;background-image:initial;background-color:rgb(255, 255, 255);background-clip:initial;background-attachment:initial;animation-play-state:paused" ><g class="ldl-scale" style="transform-origin:50% 50%;transform:rotate(0deg) scale(0.8, 0.8);animation-play-state:paused" ><path fill="#f5e6c8" d="M50.3 70.2l17.4-30.1c5.7 2.9 12.7.8 16-4.8 3.4-5.8 1.4-13.3-4.4-16.6-3.4-2-7.3-2.1-10.7-.7-.5-3.6-2.6-6.9-6-8.9-5.8-3.4-13.3-1.4-16.6 4.4-3.4 5.8-1.4 13.3 4.4 16.6L33 60.2c-5.8-3.4-13.3-1.4-16.6 4.4-3.4 5.8-1.4 13.3 4.4 16.6 3.4 2 7.3 2.1 10.7.7.5 3.6 2.6 6.9 6 8.9 5.8 3.4 13.3 1.4 16.6-4.4 3.2-5.6 1.5-12.7-3.8-16.2z" style="fill:rgb(245, 230, 200);animation-play-state:paused" ></path>
<path opacity=".1" d="M83.6 35.3C87 29.5 85 22 79.2 18.7c-3.4-2-7.3-2.1-10.7-.7-.5-3.6-2.6-6.9-6-8.9-.1-.1-.2-.1-.4-.2-2 1.2-3.8 2.9-5 5.1-4 6.8-1.6 15.6 5.2 19.5L42 68.9c-6.8-4-15.6-1.6-19.5 5.2-1.3 2.2-1.9 4.5-1.9 6.9.1.1.2.2.3.2 3.4 2 7.3 2.1 10.7.7.5 3.6 2.6 6.9 6 8.9 5.8 3.4 13.3 1.4 16.6-4.4 3.2-5.6 1.5-12.7-3.8-16.2l17.4-30.1c5.5 2.9 12.6.8 15.8-4.8z" style="animation-play-state:paused" ></path>
<metadata xmlns:d="https://loading.io/stock/" style="animation-play-state:paused" ><d:name style="animation-play-state:paused" >bone</d:name>
<d:tags style="animation-play-state:paused" >bone,skull,skeleton</d:tags>
<d:license style="animation-play-state:paused" >by</d:license>
<d:slug style="animation-play-state:paused" >yhukgu</d:slug></metadata></g><!-- generated by https://loading.io/ --></svg>