<svg width="106" height="133" viewBox="0 0 106 133" fill="none" xmlns="http://www.w3.org/2000/svg">
<path fill-rule="evenodd" clip-rule="evenodd" d="M65.6126 0.950688C62.1827 1.45176 57.6374 4.27332 55.3664 7.31109C54.5128 8.45329 53.8701 8.88173 52.6917 9.09476C50.4594 9.49796 45.7873 12.1628 43.5034 14.3348C39.0946 18.528 37.0858 22.2245 36.4827 27.2537C35.7113 33.6845 37.4611 39.4974 41.2472 43.082C42.9685 44.7121 43.6707 45.1187 46.1044 45.8946C50.8641 47.412 54.6066 46.4133 58.6928 42.5349C62.0038 39.3921 63.8065 36.2789 65.7855 30.2829C68.2654 22.7712 68.3963 17.6546 66.2117 13.6381L65.1536 11.6932L66.4361 8.95722C68.1591 5.28179 68.8444 1.16057 67.7879 0.828394C67.5543 0.754765 66.5756 0.809747 65.6126 0.950688ZM85.011 10.5688C84.6787 11.0706 83.8246 13.1669 83.1131 15.2268L81.8196 18.9722L80.5351 19.0813C77.5901 19.3312 73.9392 22.1346 71.2703 26.195C69.1671 29.3948 66.5447 36.7204 66.274 40.1527C65.4734 50.3017 70.019 57.4464 78.0405 58.648C88.0725 60.1508 97.6259 52.1043 98.1706 41.6937C98.4546 36.2558 96.1547 29.1526 92.8589 25.2926C92.1406 24.4508 91.6113 23.584 91.6824 23.3661C92.2421 21.6511 89.7943 13.9786 87.8558 11.3708C86.5797 9.65399 85.7687 9.42564 85.011 10.5688ZM21.0343 28.1688C20.3101 28.3425 19.3302 28.7096 18.8562 28.9838C17.4963 29.7706 14.8365 32.7933 13.5958 34.9608C12.9461 36.0963 11.7074 37.5226 10.6971 38.2994C1.9274 45.0409 -0.193776 59.5433 6.26957 68.5725C9.26104 72.7514 14.2623 75.497 17.9729 74.9974C20.1291 74.707 20.6505 74.4895 23.1936 72.8187C24.3284 72.0733 26.9697 70.5426 29.0632 69.4173C31.3579 68.1834 33.2505 66.8688 33.8292 66.1057C35.3451 64.1072 36.1501 61.1381 35.7745 58.933C35.2618 55.9268 32.143 46.2321 30.7267 43.2421C29.2416 40.1071 26.3934 37.1223 24.2394 36.4433C23.2191 36.1218 22.8474 35.8137 22.872 35.3104C22.8908 34.93 22.9765 33.4278 23.0628 31.9716C23.1493 30.5158 23.0241 28.9933 22.7854 28.5883C22.3984 27.9332 22.2058 27.887 21.0343 28.1688ZM101.608 64.1383C100.69 64.7866 99.2635 66.0488 98.4391 66.9435C96.9993 68.5055 96.9047 68.5426 96.059 67.8805C95.5746 67.5012 93.9015 66.7853 92.3405 66.2897C86.4195 64.4095 81.7192 65.9069 73.4132 72.3193C66.0869 77.9757 64.8852 81.0609 67.6916 87.0071C68.2536 88.1975 69.2298 90.6882 69.8613 92.542C72.367 99.8986 75.2592 102.792 81.0006 103.685C84.2571 104.191 86.4639 103.886 89.0982 102.562C94.8608 99.6681 101.555 88.6114 101.974 81.294C102.071 79.6099 102.284 78.8318 102.829 78.1696C105.054 75.4656 106.222 71.3381 105.73 67.9177C105.442 65.9113 104.332 63.2918 103.684 63.0876C103.461 63.0172 102.527 63.4899 101.608 64.1383ZM42.7402 70.5089C39.0294 70.5187 36.0777 72.3683 31.7839 77.3748C30.3525 79.0437 28.6359 80.9396 27.969 81.5879C26.1885 83.3188 21.759 85.3132 15.9961 86.9788C7.13716 89.5391 4.11376 91.6794 2.08026 96.8303C-0.949821 104.506 2.45302 114.397 9.85189 119.419C12.9058 121.492 16.8879 122.507 23.6268 122.93C29.8293 123.32 31.9752 123.999 37.4108 127.29C41.2871 129.637 42.1343 130.01 45.8752 131.017C48.8834 131.827 50.6676 132.1 52.33 132.004C59.2683 131.606 65.0297 127.047 67.3632 120.11C68.867 115.639 68.3638 113.493 63.6005 104.054C61.4652 99.8221 59.5165 95.474 59.2702 94.3915C59.0241 93.3087 58.8851 90.7585 58.9616 88.7239C59.2105 82.1072 57.9713 78.1283 54.6975 75.0342C53.1203 73.5443 52.4811 73.2144 48.6896 71.9356C45.9047 70.996 43.8601 70.5056 42.7402 70.5089Z" fill="#432A2A" fill-opacity="0.05"/>
</svg>
